<svg xmlns="http://www.w3.org/2000/svg" viewBox="0 0 1160 121" fill="none">
    <path d="M42.30125 71.63425L74.252 115.53725V118.0495H58.571L30.349 77.4435H15.94365V118.0495H0.8317575V0H15.94365V65.7465H30.0545L58.21775 30.51825H73.68275V33.03025L42.32075 71.63425H42.30125ZM167.0625 51.43925C171.00725 58.2495 173.00925 66.0605 173.00925 74.794C173.00925 83.5275 171.00725 91.3975 167.0625 98.36475C163.11775 105.17475 157.6815 110.63075 150.73375 114.69325C143.86475 118.63825 136.05375 120.64 127.16325 120.64C118.27275 120.64 110.40275 118.63825 103.45525 114.69325C96.66475 110.61125 91.20875 105.15525 87.264 98.36475C83.31925 91.41725 81.31725 83.54725 81.31725 74.794C81.31725 66.041 83.31925 58.22975 87.264 51.43925C91.20875 44.49175 96.645 39.0555 103.45525 35.1105C110.40275 31.0285 118.2925 29.0265 127.16325 29.0265C136.03425 29.0265 143.92375 31.0285 150.73375 35.1105C157.6815 39.0555 163.11775 44.49175 167.0625 51.43925ZM158.19175 74.794C158.19175 68.49425 156.8965 62.90075 154.247 58.112C151.73475 53.186 148.163 49.3 143.5115 46.59175C138.8405 43.78525 133.40425 42.431 127.18275 42.431C120.9615 42.431 115.5055 43.86375 110.85425 46.59175C106.20275 49.3785 102.5525 53.1665 99.903 58.112C97.39075 62.9205 96.11525 68.43525 96.11525 74.794C96.11525 81.15275 97.4105 86.74625 99.903 91.692C102.5525 96.4805 106.18325 100.2095 110.85425 102.99625C115.52525 105.80275 120.9615 107.157 127.18275 107.157C133.40425 107.157 138.86025 105.72425 143.5115 102.99625C148.1825 100.2095 151.81325 96.42175 154.247 91.692C156.8965 86.76575 158.19175 81.094 158.19175 74.794ZM210.12175 0H174.5205V11.677375H195.00975V106.94125C195.00975 110.0225 196.08925 112.672 198.2285 114.81125C200.3675 116.97 203.017 118.02975 206.09825 118.02975V118.10825H230.1595V104.78225H210.102V0H210.12175ZM312.8225 90.534H327.935C324.795 99.64025 319.555 106.94125 312.1175 112.456C304.7375 117.8335 295.71 120.54175 285.19 120.54175C276.2225 120.54175 268.215 118.697 261.13 114.81125C254.1825 110.86625 248.72575 105.48875 244.663 98.54125C240.71825 91.59375 238.7165 83.56675 238.7165 74.83325C238.7165 66.09975 240.56125 58.22975 244.44725 51.26275C248.3135 44.31525 253.535 38.87875 260.265 34.934C266.9975 30.85175 274.5925 28.85 283.11 28.85C289.7625 28.85 295.925 30.14525 301.5975 32.79475C307.3275 35.3855 312.255 38.82 316.4925 43.25525C320.655 47.69075 323.795 52.83275 325.7975 58.7205L257.5375 92.3985C257.5375 92.3985 257.5975 92.59475 257.675 92.67325C260.62 97.4815 264.4075 101.132 269.195 103.487C274.0625 105.842 279.44 107.059 285.17 107.059C291.47 107.059 297.065 105.62625 301.8525 102.76075C306.6425 99.817 310.2925 95.81325 312.805 90.51425L312.8225 90.534ZM253.8875 81.36875L307.6625 54.442C306.66 52.93075 305.5825 51.57675 304.365 50.4385C301.6375 47.573 298.3975 45.57125 294.69 44.3545C291.04 43.1375 287.2325 42.5685 283.17 42.5685C277.3 42.5685 272.14 43.86375 267.5475 46.51325C263.19 49.16275 259.6775 52.8915 257.165 57.68025C254.6525 62.35125 253.3775 67.984 253.3775 74.57825C253.3775 77.01175 253.5925 79.2295 253.8875 81.36875ZM384.1825 66.983H368.365C363.7125 66.983 360.28 66.0605 357.9625 64.1175C355.6675 62.17475 354.5275 59.2505 354.5275 55.3055C354.5275 51.36075 355.6675 48.515 357.9625 46.7095C360.2 44.7665 363.695 43.844 368.365 43.844H404.4575V30.51825H366.9325C358.1975 30.51825 351.4675 32.5985 346.795 36.818C342.2825 41.0375 339.985 47.14125 339.985 55.1485C339.985 63.156 342.2225 69.338 346.795 73.636C351.31 77.87525 357.9625 79.936 366.715 79.936H381.8275C386.48 79.936 389.855 81.0155 391.8575 83.01725C394.015 84.96025 395.075 88.10025 395.075 92.53575C395.075 96.97125 393.995 99.915 391.8575 101.8385C389.855 103.7815 386.48 104.70375 381.8275 104.70375H344.0875V118.02975H384.125C392.2875 118.02975 398.51 115.871 402.8275 111.5925C407.2625 107.157 409.48 100.916 409.56 92.889C409.56 84.45 407.3225 78.052 402.905 73.636C398.6075 69.20075 392.3675 66.983 384.2025 66.983H384.1825ZM498.5425 30.51825H513.655V118.128H498.5425V106.6075H497.62C494.4025 110.827 490.1825 114.20275 484.8825 116.85225C479.7225 119.36425 473.9325 120.64 467.475 120.64C459.585 120.64 452.3425 118.63825 445.9075 114.69325C439.39 110.61125 434.3075 105.17475 430.4425 98.30575C426.6525 91.35825 424.71 83.48825 424.71 74.73525C424.71 65.982 426.575 58.171 430.305 51.3805C434.0325 44.433 439.115 38.9965 445.5525 35.05175C452.1475 30.9695 459.605 28.96775 467.8275 28.96775C474.6375 28.96775 480.585 30.263 485.59 32.9125C490.7325 35.405 494.755 38.72175 497.62 42.78425H498.5425V30.53775V30.51825ZM498.5625 74.81375C498.5625 70.00525 497.8375 65.62875 496.4025 61.7035C495.1075 57.7785 493.1075 54.32425 490.4575 51.459C487.945 48.5935 484.9425 46.37575 481.5075 44.80575C477.995 43.23575 474.1275 42.45075 469.83 42.45075C464.1 42.45075 458.86 43.88325 454.2075 46.74875C449.695 49.47675 445.985 53.3235 443.2575 58.269C440.6075 63.05775 439.3125 68.57275 439.3125 74.81375C439.3125 81.05475 440.6075 86.6285 443.2575 91.49575C445.985 96.28425 449.635 100.09175 454.2075 103.016C458.78 105.744 463.865 107.17675 469.6725 107.17675C473.9725 107.17675 477.8975 106.39175 481.35 104.8215C484.9225 103.2515 488.005 101.03375 490.515 98.1685C493.165 95.303 495.1075 91.8685 496.4625 87.92375C497.8375 83.9985 498.5425 79.64175 498.5425 74.83325L498.5625 74.81375ZM625.935 47.08225C636.355 47.08225 644.6175 53.0095 648.21 61.82125H668.5025C664.0075 42.76475 648.385 29.105 625.915 29.105C599.3225 29.105 579.3825 47.98525 579.3825 74.7745C579.3825 101.56375 599.145 120.62025 626.2675 120.62025C646.385 120.62025 663.8125 108.413 668.4825 90.43575H648.19C644.245 97.81525 635.4325 102.66275 626.2675 102.66275C611 102.66275 599.4975 91.8685 599.4975 74.794C599.4975 57.7195 610.8225 47.102 625.915 47.102L625.935 47.08225ZM771.3825 74.7745C771.3825 101.56375 752.1675 120.62025 725.2225 120.62025C698.275 120.62025 679.0625 101.56375 679.0625 74.7745C679.0625 47.98525 698.295 28.9285 725.2225 28.9285C752.1475 28.9285 771.3825 47.98525 771.3825 74.7745ZM751.4425 74.7745C751.4425 58.22975 740.6675 46.729 725.2025 46.729C709.7375 46.729 698.9625 58.4065 698.9625 74.7745C698.9625 91.14225 709.7375 102.81975 725.2025 102.81975C740.6675 102.81975 751.4425 91.319 751.4425 74.7745ZM837.835 28.948C825.0775 28.948 816.4625 34.52175 811.4375 44.7665H809.8275V30.577H789.535V118.128H810.3775V73.73425C810.3775 57.91575 818.8175 47.4945 831.5725 47.4945C842.545 47.4945 848.4525 54.6775 848.4525 66.55125V118.1475H869.295V61.527C869.295 41.21425 857.0875 28.98725 837.855 28.98725L837.835 28.948ZM901.1875 26.41625V30.5575H880.875V48.358H901.1875V118.10825H922.03V48.358H950.4075V30.5575H922.03V24.80705C922.03 18.88005 925.7975 16.36795 934.785 16.36795H950.605V0H925.9925C910.5475 0 901.205 10.06805 901.205 26.41625H901.1875ZM1031.345 101.6815L1051.4625 80.05375C1056.4075 74.83325 1060.43 70.22125 1063.55 66.17825C1066.69 62.09625 1068.9875 58.269 1070.46 54.658C1071.93 51.10575 1072.6575 47.2395 1072.6575 43.059C1072.6575 37.09275 1071.2825 31.8135 1068.535 27.28C1065.7875 22.726725 1061.8825 19.17445 1056.8 16.623075C1051.6375 14.110975 1045.71 12.854925 1038.45 12.854925C1031.1875 12.854925 1024.8875 14.32685 1019.53 17.2511C1014.2325 20.194975 1010.17 24.139775 1007.3825 29.12475C1004.535 34.149 1003.1825 39.7815 1003.32 46.04225L1003.4575 46.474H1023.6525C1023.6525 41.018 1024.8875 36.75925 1027.3425 33.678C1029.815 30.53775 1033.425 28.98725 1038.215 28.98725C1042.67 28.98725 1046.045 30.4005 1048.3225 33.18725C1050.6375 35.97425 1051.795 39.389 1051.795 43.432C1051.795 45.7675 1051.3625 48.103 1050.52 50.47775C1049.715 52.7935 1048.34 55.384 1046.3975 58.22975C1044.5525 60.9775 1041.885 64.3335 1038.37 68.25875L1004.81 104.31125V117.8925H1075.405V102.03475H1031.4625L1031.325 101.6815H1031.345ZM979.5925 15.661425H979.16L978.9825 16.053925L965.6975 47.43575L965.305 48.358H985.145L985.245 47.8085L990.74 16.426825L990.8775 15.661425H979.5925ZM1155.4975 66.17825C1153.065 60.9775 1149.5125 57.03275 1144.84 54.285C1140.17 51.557 1134.46 50.24225 1127.7475 50.34025C1124.6275 50.34025 1121.6825 50.81125 1118.915 51.75325C1116.1475 52.69525 1113.755 53.873 1111.7525 55.286L1115.01 30.93025H1152.4175V15.092275H1097.8375L1091.8525 72.24275L1109.965 73.43975C1110.8875 70.9475 1112.42 68.98475 1114.5575 67.51275C1116.6975 66.0605 1119.78 65.3345 1123.7625 65.3345C1128.69 65.3345 1132.3975 67.14 1134.91 70.7315C1137.4225 74.323 1138.68 79.092 1138.68 85.019C1138.68 90.51425 1137.5 94.989 1135.1275 98.46275C1132.7725 101.917 1129.12 103.644 1124.215 103.644C1119.975 103.644 1116.52 102.34875 1113.8725 99.758C1111.2225 97.1675 1109.8875 93.5955 1109.8875 89.0425L1090.2425 90.02375L1090.105 90.2985C1089.9675 96.402 1091.42 101.6225 1094.52 105.96C1097.6025 110.2775 1101.7625 113.59425 1107.0025 115.871C1112.2425 118.1475 1117.9725 119.28575 1124.195 119.28575C1131.495 119.28575 1137.7575 117.85325 1142.9575 114.98775C1148.1575 112.1225 1152.1625 108.099 1154.9675 102.91775C1157.755 97.73675 1159.1675 91.73125 1159.1675 84.862C1159.1675 77.62025 1157.9525 71.39875 1155.5175 66.198L1155.4975 66.17825Z" fill="white"></path>
</svg>