<svg xmlns="http://www.w3.org/2000/svg" viewBox="0 0 160 21" fill="none">
    <path d="M9.74915 20.56185L4.980275 13.488825H2.551175V20.56185H0V0H2.551175V11.45455H4.931525L9.688425 5.320425H12.30035V5.758575L6.991125 12.475425L12.39145 20.1237V20.56185H9.74915Z" fill="white"></path> <path fill-rule="evenodd" clip-rule="evenodd" d="M17.3448 19.967225C18.51915 20.655725 19.8555 21 21.3538 21C22.852125 21 24.178325 20.655725 25.3325 19.967225C26.50675 19.257825 27.428 18.3085 28.09625 17.119225C28.7645 15.9091 29.0985 14.542475 29.0985 13.019375C29.0985 11.496275 28.7645 10.1401 28.09625 8.950825C27.428 7.740675 26.50675 6.79135 25.3325 6.102825C24.178325 5.39345 22.852125 5.03875 21.3538 5.03875C19.8555 5.03875 18.51915 5.39345 17.3448 6.102825C16.1907 6.79135 15.27955 7.740675 14.6114 8.950825C13.943225 10.1401 13.60915 11.496275 13.60915 13.019375C13.60915 14.542475 13.943225 15.9091 14.6114 17.119225C15.27955 18.3085 16.1907 19.257825 17.3448 19.967225ZM24.117575 17.932925C23.327925 18.412825 22.406675 18.65275 21.3538 18.65275C20.300925 18.65275 19.379675 18.412825 18.590025 17.932925C17.800375 17.45305 17.182825 16.795825 16.737375 15.96125C16.312175 15.105825 16.099575 14.125175 16.099575 13.019375C16.099575 11.913575 16.312175 10.943375 16.737375 10.1088C17.182825 9.25335 17.800375 8.5857 18.590025 8.1058C19.379675 7.625925 20.300925 7.386 21.3538 7.386C22.406675 7.386 23.327925 7.625925 24.117575 8.1058C24.907225 8.5857 25.51475 9.25335 25.93975 10.1088C26.38525 10.943375 26.608 11.913575 26.608 13.019375C26.608 14.125175 26.38525 15.105825 25.93975 15.96125C25.51475 16.795825 24.907225 17.45305 24.117575 17.932925Z" fill="white"></path> <path d="M34.69725 20.56185C34.17075 20.56185 33.72525 20.374075 33.36075 19.9985C32.9965 19.62295 32.81425 19.163925 32.81425 18.62145V2.0342775H29.35175V0H35.36525V18.2459H38.767V20.56185H34.69725Z" fill="white"></path> <path fill-rule="evenodd" clip-rule="evenodd" d="M44.00575 19.9985C45.20025 20.666175 46.557 21 48.0755 21C49.85725 21 51.37575 20.53055 52.63125 19.59165C53.8865 18.6319 54.7775 17.359175 55.30375 15.773475H52.75275C52.3275 16.6915 51.71 17.4009 50.9 17.90165C50.09 18.402375 49.1485 18.65275 48.0755 18.65275C47.1035 18.65275 46.2025 18.444125 45.3725 18.026825C44.5625 17.60955 43.9145 16.9836 43.42875 16.149025C43.41875 16.1314 43.40875 16.113675 43.399 16.095875L54.9395 10.233975C54.59525 9.211625 54.06875 8.31445 53.36 7.542475C52.6515 6.7705 51.81125 6.165425 50.83925 5.727275C49.88775 5.26825 48.845 5.03875 47.711 5.03875C46.2735 5.03875 44.98775 5.39345 43.854 6.102825C42.72 6.79135 41.82925 7.740675 41.18125 8.950825C40.53325 10.16095 40.20925 11.527575 40.20925 13.050675C40.20925 14.594625 40.5435 15.971675 41.2115 17.181825C41.9 18.3711 42.8315 19.309975 44.00575 19.9985ZM42.78 14.16905C42.7265 13.797225 42.69975 13.403575 42.69975 12.988075C42.69975 11.840525 42.9125 10.8599 43.3375 10.0462C43.76275 9.211625 44.35 8.564825 45.099 8.1058C45.8685 7.6468 46.74925 7.417275 47.7415 7.417275C48.42975 7.417275 49.07775 7.5216 49.68525 7.73025C50.31275 7.9389 50.8595 8.2936 51.32525 8.794325C51.5305 8.997025 51.71575 9.229475 51.88125 9.4917L42.78 14.16905Z" fill="white"></path> <path d="M67.957 19.435175C67.228 20.1863 66.17525 20.56185 64.7985 20.56185H58.0255V18.2459H64.4035C65.19325 18.2459 65.76025 18.078975 66.10425 17.74515C66.46875 17.411325 66.651 16.86885 66.651 16.117725C66.651 15.34575 66.46875 14.79285 66.10425 14.459025C65.76025 14.104325 65.19325 13.926975 64.4035 13.926975H61.8525C60.37425 13.926975 59.2505 13.56185 58.48125 12.8316C57.71175 12.080475 57.327 11.00595 57.327 9.60805C57.327 8.210125 57.71175 7.14605 58.48125 6.4158C59.27075 5.68555 60.40475 5.320425 61.88275 5.320425H68.23025V7.636375H62.12575C61.336 7.636375 60.749 7.803275 60.36425 8.1371C59.9795 8.450075 59.78725 8.950825 59.78725 9.63935C59.78725 10.327875 59.9795 10.83905 60.36425 11.172875C60.749 11.5067 61.336 11.673625 62.12575 11.673625H64.7985C66.17525 11.673625 67.228 12.0596 67.957 12.8316C68.70625 13.603575 69.08075 14.719825 69.08075 16.180325C69.08075 17.57825 68.70625 18.6632 67.957 19.435175Z" fill="white"></path> <path fill-rule="evenodd" clip-rule="evenodd" d="M74.9375 19.967225C76.031 20.655725 77.24575 21 78.58225 21C79.6755 21 80.6575 20.780925 81.52825 20.342775C82.419 19.88375 83.13775 19.289125 83.6845 18.558875H83.8365V20.56185H86.3875V5.320425H83.8365V7.448575H83.6845C83.1985 6.7392 82.52025 6.165425 81.64975 5.727275C80.79925 5.26825 79.797 5.03875 78.643 5.03875C77.24575 5.03875 75.9905 5.39345 74.877 6.102825C73.7835 6.79135 72.923 7.740675 72.29525 8.950825C71.66775 10.1401 71.35375 11.496275 71.35375 13.019375C71.35375 14.542475 71.67775 15.9091 72.32575 17.119225C72.9735 18.3085 73.84425 19.257825 74.9375 19.967225ZM83.8365 13.019375C83.8365 12.1848 83.715 11.42325 83.472 10.734725C83.24925 10.0462 82.91525 9.451575 82.46975 8.950825C82.0445 8.450075 81.53825 8.064075 80.95125 7.79285C80.364 7.5216 79.706 7.386 78.977 7.386C78.005 7.386 77.12425 7.636375 76.33475 8.1371C75.56525 8.617 74.94775 9.28465 74.482 10.1401C74.0365 10.974675 73.814 11.934425 73.814 13.019375C73.814 14.104325 74.0365 15.074525 74.482 15.92995C74.94775 16.764525 75.56525 17.4322 76.33475 17.932925C77.12425 18.412825 77.995 18.65275 78.94675 18.65275C79.6755 18.65275 80.3335 18.51715 80.92075 18.2459C81.52825 17.974675 82.0445 17.588675 82.46975 17.087925C82.91525 16.587175 83.24925 15.99255 83.472 15.304025C83.715 14.6155 83.8365 13.85395 83.8365 13.019375Z" fill="white"></path> <path d="M105.112 21C100.52575 21 97.185 17.71385 97.185 13.019375C97.185 8.356175 100.55625 5.07005 105.05125 5.07005C108.8475 5.07005 111.48975 7.448575 112.249 10.766025H108.81725C108.20975 9.2325 106.81275 8.1997 105.05125 8.1997C102.5 8.1997 100.5865 10.0462 100.5865 13.019375C100.5865 15.99255 102.53025 17.87035 105.112 17.87035C106.66075 17.87035 108.149 17.02535 108.81725 15.742175H112.249C111.4595 18.871825 108.5135 21 105.112 21Z" fill="white"></path> <path fill-rule="evenodd" clip-rule="evenodd" d="M114.09225 13.019375C114.09225 17.682575 117.342 21 121.89775 21C126.45325 21 129.703 17.682575 129.703 13.019375C129.703 8.356175 126.45325 5.03875 121.89775 5.03875C117.342 5.03875 114.09225 8.356175 114.09225 13.019375ZM126.332 13.019375C126.332 15.86735 124.54 17.90165 121.89775 17.90165C119.28575 17.90165 117.4635 15.86735 117.4635 13.019375C117.4635 10.1401 119.28575 8.1371 121.89775 8.1371C124.54 8.1371 126.332 10.1401 126.332 13.019375Z" fill="white"></path> <path d="M139.84525 8.2623C137.68875 8.2623 136.26125 10.0775 136.26125 12.8316V20.56185H132.73825V5.320425H136.17025V7.79285H136.4435C137.294 6.00895 138.75175 5.03875 140.90825 5.03875C144.15775 5.03875 146.223 7.166925 146.223 10.703425V20.56185H142.7V11.579725C142.7 9.51415 141.69775 8.2623 139.84525 8.2623Z" fill="white"></path> <path d="M155.83925 0C153.22725 0 151.648 1.7526075 151.648 4.6006V5.320425H148.216V8.418775H151.648V20.56185H155.171V8.418775H159.96975V5.320425H155.171V4.318925C155.171 3.28615 155.80875 2.847975 157.32725 2.847975H160V0H155.83925Z" fill="white"></path>
</svg>